<svg viewBox="0 0 200 187" xmlns="http://www.w3.org/2000/svg" xmlns:xlink="http://www.w3.org/1999/xlink">
    <mask id="mask0" mask-type="alpha">
        <path d="M190.312 36.4879C206.582 62.1187 201.309 102.826 182.328 134.186C163.346 165.547 
        130.807 187.559 100.226 186.353C69.6454 185.297 41.0228 161.023 21.7403 129.362C2.45775 
        97.8511 -7.48481 59.1033 6.67581 34.5279C20.9871 10.1032 59.7028 -0.149132 97.9666 
        0.00163737C136.23 0.303176 174.193 10.857 190.312 36.4879Z"/>
    </mask>
    <g mask="url(#mask0)">
        <path d="M190.312 36.4879C206.582 62.1187 201.309 102.826 182.328 134.186C163.346 
        165.547 130.807 187.559 100.226 186.353C69.6454 185.297 41.0228 161.023 21.7403 
        129.362C2.45775 97.8511 -7.48481 59.1033 6.67581 34.5279C20.9871 10.1032 59.7028 
        -0.149132 97.9666 0.00163737C136.23 0.303176 174.193 10.857 190.312 36.4879Z"/>
        <image href=""/>
    </g>
</svg>



  <svg
    width="1000"
    height="1000"
    viewBox="0 0 1000 1000"
    xmlns="http://www.w3.org/2000/svg">
    <defs>
      <clipPath id="shape">
        <path fill="currentColor" d="M952.5,647Q905,794,780,885Q655,976,500,976Q345,976,220,885Q95,794,47.5,647Q0,500,47.5,353Q95,206,220,115Q345,24,500,24Q655,24,780,115Q905,206,952.5,353Q1000,500,952.5,647Z"></path>
      </clipPath>
    </defs>
    <g  clip-path="url(#shape)">
      <path fill="#444cf7" d="M952.5,647Q905,794,780,885Q655,976,500,976Q345,976,220,885Q95,794,47.5,647Q0,500,47.5,353Q95,206,220,115Q345,24,500,24Q655,24,780,115Q905,206,952.5,353Q1000,500,952.5,647Z" />
    </g>
  </svg>